# xmcd
#
# Track frame offsets: 
#        150
#        14617
#        36700
#        48240
#        60405
#        79332
#        98415
#        114905
#        127370
#        143042
#        166630
#        181117
#        195565
#        208300
#        220952
#        236532
#        252267
#        266177
#
# Disc length: 3724 seconds
#
# Revision: 3
# Processed by: cddbd v1.4PL0 Copyright (c) Steve Scherf et al.
# Submitted via: ExactAudioCopy v0.95a3
#
DISCID=050e8a12
DTITLE=Various Artist - 20 Motown Hits Of Gold Vol. 6
DYEAR=1900
DGENRE=Soul
TTITLE0=The Temptations - Take A Look Around
TTITLE1=Diana Ross - Doobedood'ndoobe
TTITLE2=Michael Jackson - Rockin' Robin
TTITLE3=The Supremes - Automatically Sunshine
TTITLE4=Michael Jackson - Ain't No Sunshine
TTITLE5=JR Walker and The All Stars - Walk In The Night
TTITLE6=Jackson 5 - Looking Through The Windows
TTITLE7=Michael Jackson - Ben
TTITLE8=Gladys Knight and The Pips - Help Me Make It Through The Night
TTITLE9=The Temptations - Papa Was A Rolling Stone
TTITLE10=Jackson 5 - Doctor My Eyes
TTITLE11=JR Walker and The All Stars - Take Me Girl I'm Ready
TTITLE12=Gladys Knight and the Pips - The Look Of Love
TTITLE13=Jackson 5 - Hallelujah Day
TTITLE14=Diana Ross - Touch Me In The Morning
TTITLE15=Eddie Kendricks - Keep On Truckin'
TTITLE16=Diana Ross - All Of My Life
TTITLE17=Diana Ross and Marvin Gaye - You Are Everything
EXTD=
EXTT0=
EXTT1=
EXTT2=
EXTT3=
EXTT4=
EXTT5=
EXTT6=
EXTT7=
EXTT8=
EXTT9=
EXTT10=
EXTT11=
EXTT12=
EXTT13=
EXTT14=
EXTT15=
EXTT16=
EXTT17=
PLAYORDER=
